<?xml version="1.0" encoding="utf-8"?>
<!-- Generator: Adobe Illustrator 15.1.0, SVG Export Plug-In  -->
<!DOCTYPE svg PUBLIC "-//W3C//DTD SVG 1.1//EN" "http://www.w3.org/Graphics/SVG/1.1/DTD/svg11.dtd" [
	<!ENTITY ns_flows "http://ns.adobe.com/Flows/1.0/">
]>
<svg version="1.1"
	 xmlns="http://www.w3.org/2000/svg" xmlns:xlink="http://www.w3.org/1999/xlink" xmlns:a="http://ns.adobe.com/AdobeSVGViewerExtensions/3.0/"
	 x="0px" y="0px" width="137px" height="30px" viewBox="-0.343 -0.762 137 30"
	 overflow="visible" enable-background="new -0.343 -0.762 137 30" xml:space="preserve">
<defs>
</defs>
<path fill="#333333" d="M8.438,28.236L4.279,14.518v13.718H0V0.24h4.279v13.518L8.719,0.24h4.479l-4.8,13.757l4.64,14.238H8.438z"/>
<path fill="#333333" d="M24.078,0.24V4.12h-5.239v7.918h5.04v3.879h-5.04v8.439h5.319v3.879H14.56V0.24H24.078z"/>
<path fill="#333333" d="M34.958,0.24h4.04l-4.12,28.035H29.64L25.52,0.24h4.319l2.56,20.636L34.958,0.24z"/>
<path fill="#333333" d="M45.079,28.236H40.8V0.24h4.279V28.236z"/>
<path fill="#333333" d="M56.638,0.24h3.84v27.996h-4.64L51.479,9.358l0.04,18.877h-3.84V0.24h5l3.999,17.398L56.638,0.24z"/>
<path fill="#333333" d="M80.557,16.757v6.52c0,3.479-1.72,5.199-5.199,5.199h-2.12c-3.479,0-5.198-1.721-5.198-5.199V5.199
	C68.039,1.72,69.759,0,73.237,0h2.08c3.479,0,5.159,1.68,5.159,5.159v5.719h-4.199V5.399c0-1.12-0.52-1.64-1.6-1.64h-0.72
	c-1.12,0-1.64,0.52-1.64,1.64v17.676c0,1.121,0.52,1.641,1.64,1.641h0.8c1.079,0,1.6-0.52,1.6-1.641v-6.318H80.557z"/>
<path fill="#333333" d="M87.237,0.24v24.117h4.72v3.879h-8.999V0.24H87.237z"/>
<path fill="#333333" d="M106.596,28.236h-4.239l-0.56-4.4h-4.439l-0.52,4.4h-3.96l4-28.036h5.679L106.596,28.236z M97.838,20.037
	h3.479l-1.72-13.998L97.838,20.037z"/>
<path fill="#333333" d="M120.636,18.716v9.52h-4.279v-9.439c0-1.238-0.56-1.799-1.8-1.799h-1.92v11.238h-4.278V0.24h7.038
	c3.479,0,5.199,1.72,5.199,5.199v5.279c0,2.479-0.88,3.679-2.439,4.319C119.916,15.517,120.636,16.597,120.636,18.716z
	 M114.717,4.04h-2.08v9.238h1.92c1.2,0,1.76-0.56,1.76-1.72V5.639C116.316,4.56,115.797,4.04,114.717,4.04z"/>
<path fill="#333333" d="M131.556,28.236l-4.16-13.718v13.718h-4.279V0.24h4.279v13.518l4.439-13.518h4.479l-4.799,13.757
	l4.639,14.238H131.556z"/>
</svg>
